PathFileType	4	(X/Y/Z)	RBDS002\RBDS002runT25.trc
DataRate	CameraRate	NumFrames	NumMarkers	Units	OrigDataRate	OrigDataStartFrame	OrigNumFrames
150.000000	150.000000	4	33	mm	150.000000	2812	4500
Frame#	Time	L.ASIS			L.Heel.Bottom			L.Heel.Lateral			L.Heel.Top			L.Iliac.Crest			L.MT1			L.MT5			L.PSIS			L.Shank.Bottom.Lateral			L.Shank.Bottom.Medial			L.Shank.Top.Lateral			L.Shank.Top.Medial			L.Thigh.Bottom.Lateral			L.Thigh.Bottom.Medial			L.Thigh.Top.Lateral			L.Thigh.Top.Medial			R.ASIS			R.ASY			R.Heel.Bottom			R.Heel.Lateral			R.Heel.Top			R.Iliac.Crest			R.MT1			R.MT5			R.PSIS			R.Shank.Bottom.Lateral			R.Shank.Bottom.Medial			R.Shank.Top.Lateral			R.Shank.Top.Medial			R.Thigh.Bottom.Lateral			R.Thigh.Bottom.Medial			R.Thigh.Top.Lateral			R.Thigh.Top.Medial			
		X1	Y1	Z1	X2	Y2	Z2	X3	Y3	Z3	X4	Y4	Z4	X5	Y5	Z5	X6	Y6	Z6	X7	Y7	Z7	X8	Y8	Z8	X9	Y9	Z9	X10	Y10	Z10	X11	Y11	Z11	X12	Y12	Z12	X13	Y13	Z13	X14	Y14	Z14	X15	Y15	Z15	X16	Y16	Z16	X17	Y17	Z17	X18	Y18	Z18	X19	Y19	Z19	X20	Y20	Z20	X21	Y21	Z21	X22	Y22	Z22	X23	Y23	Z23	X24	Y24	Z24	X25	Y25	Z25	X26	Y26	Z26	X27	Y27	Z27	X28	Y28	Z28	X29	Y29	Z29	X30	Y30	Z30	X31	Y31	Z31	X32	Y32	Z32	X33	Y33	Z33	

2813	18.74666666666667	2336.757940126637	961.4368847332192	911.7342965337854	1830.381473306981	325.186258232273	935.291659858524	1849.857834357421	315.0582445890276	882.7409380766518	1879.400352670549	339.2007970176629	931.8082923016239	2256.126940976424	1034.751211829181	850.2896014746148	1950.520275817189	126.8842847189635	914.7609815802193	1913.872990273902	175.9772689785197	815.6094001149477	2145.333046531941	987.3747036460062	952.5296633111594	1983.216293933636	330.0773474500311	860.29476701211	1970.712450773928	361.8486329706385	899.112675783424	2052.342231713034	370.1076894946364	846.3020339824766	2043.635224472974	403.4063481902712	886.84739450789	2298.257154620884	523.2483798080364	837.6473850466415	2250.890938025394	512.9047576778344	892.8830143196093	2265.01519890609	628.5075540348358	832.5996440721307	2222.228466478798	619.5129626919977	885.7886743095575	2319.439706754652	979.7247446249258	1126.154508367611	2316.23750636701	87.73478876654561	1027.13860863502	2124.784146945395	43.04755868692683	1023.693376668357	2148.548775302243	57.13592394750552	1062.875842451231	2141.9524983489	92.04077832807192	1021.531199365642	2217.601481595333	1031.817373468467	1171.714790629313	2360.789895869963	52.95442587362645	988.042421425351	2324.544732289539	46.96289607880024	1096.589261689917	2135.741182516003	992.2389497989684	1038.632389100396	2240.572373822716	166.9569102084369	1085.663040992159	2202.075757229588	191.556595432597	1055.223136321221	2265.757243229195	240.7352043120238	1109.267793111954	2230.468261112349	263.8695000029893	1074.75750073359	2350.45209499565	560.9846967181699	1137.587196954067	2301.745329325888	549.8132518180563	1083.217535984049	2297.976948013751	655.2868739147509	1162.628565161493	2250.06540950097	642.6546462918653	1112.708523380298	
2814	18.75333333333333	2334.368175598421	960.0569624358898	911.4604397084148	1842.871203824948	318.4331310596476	935.2603826154949	1862.911948899738	309.0438379476523	882.7993381427694	1891.525452628521	333.6962926416592	932.1552171376053	2252.830686277721	1033.583085699097	850.7972727087215	1968.119957169461	123.3081529485121	914.7963361051833	1930.840143684636	171.9473323681241	815.527370911502	2143.21565260697	986.2022050061985	953.788647476522	1996.233282430223	326.6243935062208	860.7543444043542	1983.458693550561	358.2616014073766	899.5724408352527	2064.879861970905	367.454088938993	846.6045929240565	2055.884952826342	400.640748385911	887.1715481110052	2307.64672420276	523.041876116307	836.8152048829882	2260.153053984951	510.9552130365124	891.4985300119449	2271.295238216061	627.1834414746754	831.6972653236888	2227.97988452917	616.5495806900984	884.080631978876	2318.352958262354	978.1247690912521	1126.158873024763	2299.733806820333	87.41772332962587	1027.175560242429	2108.118695091616	43.35341516494896	1023.62581451623	2131.899165235739	57.44176832610012	1062.826886600568	2125.44507284395	92.28900789330176	1021.427770519462	2215.971385165772	1030.105561220322	1172.385026165637	2344.047680760581	52.63628895669726	988.2601593483696	2307.691569873091	46.71877430920825	1096.680244649317	2134.386502653004	990.9953056556317	1039.666452215328	2226.143935025216	166.5551674124747	1085.574365741198	2188.063660300521	191.9887725972607	1055.421096422768	2253.006283231977	239.7351743598492	1109.227897126721	2218.02751414971	263.6456077878804	1074.956448090031	2343.42528257248	557.642507760877	1137.174946621443	2294.712234255942	547.6562347627259	1082.448666216762	2292.62758468426	652.8043751107778	1162.318357880802	2244.863262402057	641.4577067285512	1111.851615158082	
2815	18.76	2331.909160574258	959.4224007297661	911.0036533592286	1855.658031143231	310.9536320157064	934.8603954146419	1876.382440582011	302.2121293467974	882.5642475379251	1903.863336313177	327.6001662691395	932.172613675833	2249.11240743748	1033.126636000522	851.3245302879103	1986.606221661736	119.5463242885127	915.3115676259705	1948.697762139855	167.2552344720204	815.7085059434811	2141.125682394447	985.5172267027955	955.1948709646164	2009.520327030206	322.8411689311276	861.1606582332529	1996.286386651705	354.3569855147645	899.900462405231	2077.530869439517	364.7059558426022	846.8914511152049	2068.048954565022	397.8094891525733	887.3989912199688	2316.943989724892	523.7128868758463	836.1968726072828	2269.301588329215	509.8856509289347	890.2334113200019	2277.485491441505	626.635745427108	830.8635120919336	2233.674656184604	614.3619671710738	882.4066237736234	2317.431095094522	976.8679233303552	1126.032271112322	2283.156803782077	87.0608683431074	1027.12944242003	2091.382493109028	43.65107355418438	1023.557346389262	2115.188117621405	57.76172257788281	1062.762879644082	2108.881887581348	92.53483903038827	1021.290746929015	2214.591586774827	1029.104893076479	1173.055975055035	2327.231599954046	52.19940922859738	988.3848109766606	2290.79437399625	46.43868817252159	1096.691268341584	2133.104539681829	990.2482640406237	1040.829132244109	2211.467048782868	166.1576896490379	1085.43969182664	2173.776372038919	192.3336528043794	1055.546718382282	2239.822098323101	238.768391439966	1109.134641510722	2205.126508358671	263.3699000776757	1075.084793058096	2335.778803119149	554.6610560233378	1136.98568502918	2286.853062534246	545.7695140518538	1082.127212434513	2286.868589283371	650.7855588025549	1162.147675258923	2239.098559102401	640.655877528323	1111.321651768028	
2816	18.76666666666667	2329.43175054363	959.5047752453988	910.4056645378055	1868.742785518961	302.7315064745521	934.1674923980177	1890.245004766582	294.566826406808	882.0952394027884	1916.400959888128	320.8934401166815	931.9075140157488	2245.092194665772	1033.280760221359	851.8732031525618	2005.936995065337	115.6325998388834	916.2634218367139	1967.372477757154	161.959792490044	816.1420318311632	2139.096915299018	985.3107563920835	956.7294867073989	2023.027378840005	318.7364783707505	861.5200636239757	2009.146753558107	350.1245734725118	900.1164763999337	2090.229604690221	361.871117019188	847.169643092665	2080.06469219591	394.9005847445266	887.5482724243366	2326.046836757832	525.2488186322665	835.7992205466393	2278.247898287814	509.699072373166	889.1185342375271	2283.519166358552	626.8683860777714	830.1416600160885	2239.274979030562	612.9765983710276	880.8488289921349	2316.677222938526	975.9575073702431	1125.805917816318	2266.504986550887	86.70352676336704	1026.996677535862	2074.592290999024	43.99476428101224	1023.504710491181	2098.436719982953	58.1467899525797	1062.69603805752	2092.281442573811	92.82849031525711	1021.134420779789	2213.521949327535	1028.756206528567	1173.732374931012	2310.349861428811	51.69774142682409	988.417241722049	2273.867009620115	46.16228823669339	1096.620013581942	2131.912059159232	990.0046102490152	1042.106086678788	2196.566179193724	165.8453409608508	1085.251443848041	2159.240612061353	192.6772019715752	1055.58216621474	2226.240344378988	237.9258615507723	1108.975670872337	2191.807935379011	263.1399025232839	1075.119153216509	2327.64957355067	552.1248299352451	1137.020583042604	2278.297078222445	544.2180114689946	1082.270774855235	2280.805366176106	649.2838017287156	1162.129410812336	2232.857835050922	640.2694777694139	1111.165424007783	
